<svg width="1600" height="1200" viewBox="0 0 1600 1200" fill="none" xmlns="http://www.w3.org/2000/svg">
  <defs>
    <linearGradient id="bg" x1="160" y1="120" x2="1420" y2="1100" gradientUnits="userSpaceOnUse">
      <stop stop-color="#091A33"/>
      <stop offset="0.52" stop-color="#123A63"/>
      <stop offset="1" stop-color="#1C5B7A"/>
    </linearGradient>
    <radialGradient id="glowA" cx="0" cy="0" r="1" gradientUnits="userSpaceOnUse" gradientTransform="translate(1180 180) rotate(132.207) scale(700 520)">
      <stop stop-color="#7BE1DA" stop-opacity="0.45"/>
      <stop offset="1" stop-color="#7BE1DA" stop-opacity="0"/>
    </radialGradient>
    <radialGradient id="glowB" cx="0" cy="0" r="1" gradientUnits="userSpaceOnUse" gradientTransform="translate(360 1020) rotate(-39.52) scale(640 460)">
      <stop stop-color="#F0C36B" stop-opacity="0.28"/>
      <stop offset="1" stop-color="#F0C36B" stop-opacity="0"/>
    </radialGradient>
    <linearGradient id="panel" x1="0" y1="0" x2="1" y2="1">
      <stop stop-color="#F6FBFF" stop-opacity="0.18"/>
      <stop offset="1" stop-color="#F6FBFF" stop-opacity="0.06"/>
    </linearGradient>
    <linearGradient id="accent" x1="0" y1="0" x2="1" y2="1">
      <stop stop-color="#6CE1DC"/>
      <stop offset="1" stop-color="#8AB8FF"/>
    </linearGradient>
    <filter id="blur" x="0" y="0" width="1600" height="1200" filterUnits="userSpaceOnUse" color-interpolation-filters="sRGB">
      <feGaussianBlur stdDeviation="36"/>
    </filter>
  </defs>

  <rect width="1600" height="1200" fill="url(#bg)"/>
  <rect width="1600" height="1200" fill="url(#glowA)"/>
  <rect width="1600" height="1200" fill="url(#glowB)"/>

  <g filter="url(#blur)" opacity="0.28">
    <circle cx="1230" cy="240" r="110" fill="#87E8E1"/>
    <circle cx="420" cy="930" r="120" fill="#E0AE59"/>
    <circle cx="1010" cy="860" r="90" fill="#9EC2FF"/>
  </g>

  <g opacity="0.8">
    <path d="M150 900L320 720L430 785L570 610L715 700L905 450L1090 565L1270 335L1450 470" stroke="url(#accent)" stroke-width="10" stroke-linecap="round" stroke-linejoin="round"/>
    <circle cx="320" cy="720" r="13" fill="#87E8E1"/>
    <circle cx="570" cy="610" r="13" fill="#87E8E1"/>
    <circle cx="905" cy="450" r="13" fill="#87E8E1"/>
    <circle cx="1270" cy="335" r="13" fill="#87E8E1"/>
  </g>

  <g>
    <rect x="118" y="148" width="632" height="420" rx="28" fill="url(#panel)" stroke="rgba(255,255,255,0.16)"/>
    <rect x="166" y="204" width="192" height="18" rx="9" fill="#CFE3FF" fill-opacity="0.76"/>
    <rect x="166" y="248" width="430" height="14" rx="7" fill="#D7E8F9" fill-opacity="0.34"/>
    <rect x="166" y="278" width="366" height="14" rx="7" fill="#D7E8F9" fill-opacity="0.34"/>
    <rect x="166" y="338" width="250" height="176" rx="24" fill="#0D2746" fill-opacity="0.72" stroke="rgba(255,255,255,0.08)"/>
    <rect x="448" y="338" width="254" height="80" rx="24" fill="#0D2746" fill-opacity="0.72" stroke="rgba(255,255,255,0.08)"/>
    <rect x="448" y="434" width="254" height="80" rx="24" fill="#0D2746" fill-opacity="0.72" stroke="rgba(255,255,255,0.08)"/>
    <path d="M208 478V402H252V478" stroke="#6CE1DC" stroke-width="16" stroke-linecap="round" stroke-linejoin="round"/>
    <path d="M274 478V370H318V478" stroke="#8AB8FF" stroke-width="16" stroke-linecap="round" stroke-linejoin="round"/>
    <path d="M510 380H640" stroke="#E8F3FF" stroke-opacity="0.7" stroke-width="16" stroke-linecap="round"/>
    <path d="M510 468H600" stroke="#E8F3FF" stroke-opacity="0.7" stroke-width="16" stroke-linecap="round"/>
    <path d="M510 500H670" stroke="#E8F3FF" stroke-opacity="0.28" stroke-width="12" stroke-linecap="round"/>
    <circle cx="630" cy="468" r="28" fill="#F0C36B"/>
  </g>

  <g>
    <rect x="814" y="536" width="654" height="430" rx="30" fill="url(#panel)" stroke="rgba(255,255,255,0.16)"/>
    <rect x="872" y="602" width="236" height="308" rx="26" fill="#0D2746" fill-opacity="0.76" stroke="rgba(255,255,255,0.08)"/>
    <rect x="1140" y="602" width="270" height="130" rx="26" fill="#0D2746" fill-opacity="0.76" stroke="rgba(255,255,255,0.08)"/>
    <rect x="1140" y="756" width="270" height="154" rx="26" fill="#0D2746" fill-opacity="0.76" stroke="rgba(255,255,255,0.08)"/>
    <path d="M930 840L978 788L1032 824L1084 742" stroke="#6CE1DC" stroke-width="14" stroke-linecap="round" stroke-linejoin="round"/>
    <path d="M904 676H1046" stroke="#E8F3FF" stroke-opacity="0.74" stroke-width="16" stroke-linecap="round"/>
    <path d="M904 716H1002" stroke="#E8F3FF" stroke-opacity="0.28" stroke-width="12" stroke-linecap="round"/>
    <path d="M1188 650H1300" stroke="#E8F3FF" stroke-opacity="0.74" stroke-width="16" stroke-linecap="round"/>
    <path d="M1188 689H1360" stroke="#E8F3FF" stroke-opacity="0.28" stroke-width="12" stroke-linecap="round"/>
    <path d="M1188 804H1320" stroke="#E8F3FF" stroke-opacity="0.74" stroke-width="16" stroke-linecap="round"/>
    <path d="M1188 844H1360" stroke="#E8F3FF" stroke-opacity="0.28" stroke-width="12" stroke-linecap="round"/>
    <circle cx="1322" cy="649" r="22" fill="#6CE1DC"/>
    <circle cx="1354" cy="804" r="22" fill="#8AB8FF"/>
  </g>

  <g opacity="0.92">
    <rect x="1012" y="192" width="270" height="204" rx="28" fill="#F5FBFF" fill-opacity="0.1" stroke="rgba(255,255,255,0.18)"/>
    <path d="M1092 332L1148 276L1196 318L1254 246" stroke="#F0C36B" stroke-width="14" stroke-linecap="round" stroke-linejoin="round"/>
    <circle cx="1254" cy="246" r="20" fill="#F0C36B"/>
    <path d="M1088 232H1208" stroke="#E8F3FF" stroke-opacity="0.74" stroke-width="16" stroke-linecap="round"/>
  </g>
</svg>
